<svg xmlns="http://www.w3.org/2000/svg" viewBox="0 0 1200 700" width="1200" height="700" role="img" aria-label="Фото: крупная отливка / модельная оснастка">
  <defs>
    <linearGradient id="bg" x1="0" y1="0" x2="1200" y2="700" gradientUnits="userSpaceOnUse">
      <stop offset="0" stop-color="#171D26"/>
      <stop offset="1" stop-color="#0E1218"/>
    </linearGradient>
    <clipPath id="clip"><rect width="1200" height="700"/></clipPath>
  </defs>
  <rect width="1200" height="700" fill="url(#bg)"/>
  <g clip-path="url(#clip)"><path d="M-700 700 L0 0" stroke="#232B38" stroke-width="2" opacity="0.5"/><path d="M-614 700 L86 0" stroke="#232B38" stroke-width="2" opacity="0.5"/><path d="M-528 700 L172 0" stroke="#232B38" stroke-width="2" opacity="0.5"/><path d="M-442 700 L258 0" stroke="#232B38" stroke-width="2" opacity="0.5"/><path d="M-356 700 L344 0" stroke="#232B38" stroke-width="2" opacity="0.5"/><path d="M-270 700 L430 0" stroke="#232B38" stroke-width="2" opacity="0.5"/><path d="M-184 700 L516 0" stroke="#232B38" stroke-width="2" opacity="0.5"/><path d="M-98 700 L602 0" stroke="#232B38" stroke-width="2" opacity="0.5"/><path d="M-12 700 L688 0" stroke="#232B38" stroke-width="2" opacity="0.5"/><path d="M74 700 L774 0" stroke="#232B38" stroke-width="2" opacity="0.5"/><path d="M160 700 L860 0" stroke="#232B38" stroke-width="2" opacity="0.5"/><path d="M246 700 L946 0" stroke="#232B38" stroke-width="2" opacity="0.5"/><path d="M332 700 L1032 0" stroke="#232B38" stroke-width="2" opacity="0.5"/><path d="M418 700 L1118 0" stroke="#232B38" stroke-width="2" opacity="0.5"/><path d="M504 700 L1204 0" stroke="#232B38" stroke-width="2" opacity="0.5"/><path d="M590 700 L1290 0" stroke="#232B38" stroke-width="2" opacity="0.5"/><path d="M676 700 L1376 0" stroke="#232B38" stroke-width="2" opacity="0.5"/><path d="M762 700 L1462 0" stroke="#232B38" stroke-width="2" opacity="0.5"/><path d="M848 700 L1548 0" stroke="#232B38" stroke-width="2" opacity="0.5"/><path d="M934 700 L1634 0" stroke="#232B38" stroke-width="2" opacity="0.5"/><path d="M1020 700 L1720 0" stroke="#232B38" stroke-width="2" opacity="0.5"/><path d="M1106 700 L1806 0" stroke="#232B38" stroke-width="2" opacity="0.5"/><path d="M1192 700 L1892 0" stroke="#232B38" stroke-width="2" opacity="0.5"/><path d="M1278 700 L1978 0" stroke="#232B38" stroke-width="2" opacity="0.5"/><path d="M1364 700 L2064 0" stroke="#232B38" stroke-width="2" opacity="0.5"/><path d="M1450 700 L2150 0" stroke="#232B38" stroke-width="2" opacity="0.5"/><path d="M1536 700 L2236 0" stroke="#232B38" stroke-width="2" opacity="0.5"/><path d="M1622 700 L2322 0" stroke="#232B38" stroke-width="2" opacity="0.5"/><path d="M1708 700 L2408 0" stroke="#232B38" stroke-width="2" opacity="0.5"/><path d="M1794 700 L2494 0" stroke="#232B38" stroke-width="2" opacity="0.5"/><path d="M1880 700 L2580 0" stroke="#232B38" stroke-width="2" opacity="0.5"/></g>
  <g transform="translate(600 332)" fill="none" stroke="#E8562D" stroke-width="3" stroke-linecap="round" stroke-linejoin="round">
    <path transform="scale(2.2)" d="M0 -14c4 8 12 18 12 27a12 12 0 0 1-24 0c0-9 8-19 12-27z"/>
  </g>
  <text x="50%" y="396" text-anchor="middle" font-family="Arial, sans-serif" font-size="29" font-weight="700" fill="#F4F6F8">Фото: крупная отливка / модельная оснастка</text>
  <text x="50%" y="431" text-anchor="middle" font-family="Arial, sans-serif" font-size="20" fill="#8A94A6">1200×700</text>
</svg>